<svg width="80" height="81" viewBox="0 0 80 81" fill="none" xmlns="http://www.w3.org/2000/svg">
<circle cx="40" cy="40.8794" r="40" fill="#D9E7E8"/>
<path d="M70.1303 59.2345V61.9682C70.1303 65.199 67.3966 67.9327 64.1658 67.9327H16.4498C13.2191 67.9327 10.4854 65.199 10.4854 61.9682V59.2345C10.4854 52.0274 18.9351 47.554 26.8877 44.0747L27.6333 43.7019C28.2546 43.4534 28.8759 43.4534 29.4972 43.8262C32.728 45.9386 36.3315 47.0569 40.1836 47.0569C44.0356 47.0569 47.7635 45.8143 50.87 43.8262C51.4913 43.4534 52.1126 43.4534 52.7339 43.7019L53.4794 44.0747C61.6806 47.554 70.1303 51.9031 70.1303 59.2345ZM40.3078 8.28772C48.509 8.28772 55.0948 15.6191 55.0948 24.6901C55.0948 33.7611 48.509 41.0924 40.3078 41.0924C32.1067 41.0924 25.5209 33.7611 25.5209 24.6901C25.5209 15.6191 32.1067 8.28772 40.3078 8.28772Z" fill="white"/>
</svg>
