<svg width="25" height="21" viewBox="0 0 25 21" fill="none" xmlns="http://www.w3.org/2000/svg">
<path d="M11.9996 3.06795L12.508 3.53667L13.0163 3.06795L13.7 2.43759C14.8649 1.36362 16.4196 0.76466 18.0888 0.76466C19.7589 0.76466 21.308 1.35927 22.4723 2.4327C23.634 3.50381 24.2546 4.90866 24.25 6.39409V6.39642C24.25 7.88174 23.6248 9.28749 22.4624 10.3595C22.4621 10.3597 22.4619 10.3599 22.4617 10.3601L12.4963 19.5139C12.4955 19.5141 12.4947 19.5141 12.494 19.5142L12.4932 19.514L2.5436 10.3406C1.37909 9.26693 0.750029 7.86519 0.750033 6.38176L0.750025 6.37943C0.745414 4.89554 1.37008 3.49024 2.533 2.41804C3.69246 1.34904 5.2471 0.75 6.91119 0.75C8.57963 0.75 10.1398 1.35331 11.3053 2.42782L11.9996 3.06795Z" stroke="#2E3955" stroke-width="1.5"/>
</svg>
